<mxfile host="app.diagrams.net" agent="Mozilla/5.0 (Windows NT 10.0; Win64; x64) AppleWebKit/537.36 (KHTML, like Gecko) Chrome/109.0.0.0 Safari/537.36" version="27.1.1">
  <diagram name="PÃ¡gina-1" id="8z8KOmpMjx8TbM8chvGR">
    <mxGraphModel dx="1426" dy="769" grid="1" gridSize="10" guides="1" tooltips="1" connect="1" arrows="1" fold="1" page="1" pageScale="1" pageWidth="827" pageHeight="1169" math="0" shadow="0">
      <root>
        <mxCell id="0" />
        <mxCell id="1" parent="0" />
        <mxCell id="fic08GAlzJQbdWZi42WJ-1" value="Livros" style="swimlane;fontStyle=0;childLayout=stackLayout;horizontal=1;startSize=30;horizontalStack=0;resizeParent=1;resizeParentMax=0;resizeLast=0;collapsible=1;marginBottom=0;whiteSpace=wrap;html=1;movable=1;resizable=1;rotatable=1;deletable=1;editable=1;locked=0;connectable=1;" vertex="1" parent="1">
          <mxGeometry x="90" y="50" width="270" height="398" as="geometry" />
        </mxCell>
        <mxCell id="fic08GAlzJQbdWZi42WJ-2" value="&amp;nbsp;- titulo: String" style="text;strokeColor=none;fillColor=none;align=left;verticalAlign=middle;spacingLeft=4;spacingRight=4;overflow=hidden;points=[[0,0.5],[1,0.5]];portConstraint=eastwest;rotatable=0;whiteSpace=wrap;html=1;" vertex="1" parent="fic08GAlzJQbdWZi42WJ-1">
          <mxGeometry y="30" width="270" height="30" as="geometry" />
        </mxCell>
        <mxCell id="fic08GAlzJQbdWZi42WJ-3" value="- autor: String" style="text;strokeColor=none;fillColor=none;align=left;verticalAlign=middle;spacingLeft=4;spacingRight=4;overflow=hidden;points=[[0,0.5],[1,0.5]];portConstraint=eastwest;rotatable=0;whiteSpace=wrap;html=1;" vertex="1" parent="fic08GAlzJQbdWZi42WJ-1">
          <mxGeometry y="60" width="270" height="30" as="geometry" />
        </mxCell>
        <mxCell id="fic08GAlzJQbdWZi42WJ-4" value="- isbn: String {PK}&amp;nbsp;" style="text;strokeColor=none;fillColor=none;align=left;verticalAlign=middle;spacingLeft=4;spacingRight=4;overflow=hidden;points=[[0,0.5],[1,0.5]];portConstraint=eastwest;rotatable=0;whiteSpace=wrap;html=1;" vertex="1" parent="fic08GAlzJQbdWZi42WJ-1">
          <mxGeometry y="90" width="270" height="30" as="geometry" />
        </mxCell>
        <mxCell id="fic08GAlzJQbdWZi42WJ-17" value="- anoPublicacao: int&amp;nbsp;" style="text;strokeColor=none;fillColor=none;align=left;verticalAlign=middle;spacingLeft=4;spacingRight=4;overflow=hidden;points=[[0,0.5],[1,0.5]];portConstraint=eastwest;rotatable=0;whiteSpace=wrap;html=1;" vertex="1" parent="fic08GAlzJQbdWZi42WJ-1">
          <mxGeometry y="120" width="270" height="30" as="geometry" />
        </mxCell>
        <mxCell id="fic08GAlzJQbdWZi42WJ-18" value="&lt;span class=&quot;selected&quot;&gt;- editora: String&lt;/span&gt;" style="text;strokeColor=none;fillColor=none;align=left;verticalAlign=middle;spacingLeft=4;spacingRight=4;overflow=hidden;points=[[0,0.5],[1,0.5]];portConstraint=eastwest;rotatable=0;whiteSpace=wrap;html=1;" vertex="1" parent="fic08GAlzJQbdWZi42WJ-1">
          <mxGeometry y="150" width="270" height="30" as="geometry" />
        </mxCell>
        <mxCell id="fic08GAlzJQbdWZi42WJ-19" value="&lt;span class=&quot;selected&quot;&gt;- qtdExemplaresDisponiveis: int&lt;/span&gt;" style="text;strokeColor=none;fillColor=none;align=left;verticalAlign=middle;spacingLeft=4;spacingRight=4;overflow=hidden;points=[[0,0.5],[1,0.5]];portConstraint=eastwest;rotatable=0;whiteSpace=wrap;html=1;" vertex="1" parent="fic08GAlzJQbdWZi42WJ-1">
          <mxGeometry y="180" width="270" height="30" as="geometry" />
        </mxCell>
        <mxCell id="fic08GAlzJQbdWZi42WJ-35" value="" style="line;strokeWidth=1;fillColor=none;align=left;verticalAlign=middle;spacingTop=-1;spacingLeft=3;spacingRight=3;rotatable=0;labelPosition=right;points=[];portConstraint=eastwest;strokeColor=inherit;" vertex="1" parent="fic08GAlzJQbdWZi42WJ-1">
          <mxGeometry y="210" width="270" height="8" as="geometry" />
        </mxCell>
        <mxCell id="fic08GAlzJQbdWZi42WJ-20" value="&lt;span class=&quot;selected&quot;&gt;+ Livro(titulo, autor, isbn, ano, editora, qtdInicial)&lt;/span&gt;" style="text;strokeColor=none;fillColor=none;align=left;verticalAlign=middle;spacingLeft=4;spacingRight=4;overflow=hidden;points=[[0,0.5],[1,0.5]];portConstraint=eastwest;rotatable=1;whiteSpace=wrap;html=1;movable=1;resizable=1;deletable=1;editable=1;locked=0;connectable=1;strokeWidth=1;" vertex="1" parent="fic08GAlzJQbdWZi42WJ-1">
          <mxGeometry y="218" width="270" height="30" as="geometry" />
        </mxCell>
        <mxCell id="fic08GAlzJQbdWZi42WJ-30" value="&lt;span class=&quot;selected&quot;&gt;+ getIsbn(): String&lt;/span&gt;" style="text;strokeColor=none;fillColor=none;align=left;verticalAlign=middle;spacingLeft=4;spacingRight=4;overflow=hidden;points=[[0,0.5],[1,0.5]];portConstraint=eastwest;rotatable=1;whiteSpace=wrap;html=1;movable=1;resizable=1;deletable=1;editable=1;locked=0;connectable=1;" vertex="1" parent="fic08GAlzJQbdWZi42WJ-1">
          <mxGeometry y="248" width="270" height="30" as="geometry" />
        </mxCell>
        <mxCell id="fic08GAlzJQbdWZi42WJ-31" value="&lt;span class=&quot;selected&quot;&gt;+ getAutor(): String&lt;/span&gt;" style="text;strokeColor=none;fillColor=none;align=left;verticalAlign=middle;spacingLeft=4;spacingRight=4;overflow=hidden;points=[[0,0.5],[1,0.5]];portConstraint=eastwest;rotatable=1;whiteSpace=wrap;html=1;movable=1;resizable=1;deletable=1;editable=1;locked=0;connectable=1;" vertex="1" parent="fic08GAlzJQbdWZi42WJ-1">
          <mxGeometry y="278" width="270" height="30" as="geometry" />
        </mxCell>
        <mxCell id="fic08GAlzJQbdWZi42WJ-32" value="&lt;span class=&quot;selected&quot;&gt;+ getQtdExemplaresDisponiveis(): int&lt;/span&gt;" style="text;strokeColor=none;fillColor=none;align=left;verticalAlign=middle;spacingLeft=4;spacingRight=4;overflow=hidden;points=[[0,0.5],[1,0.5]];portConstraint=eastwest;rotatable=1;whiteSpace=wrap;html=1;movable=1;resizable=1;deletable=1;editable=1;locked=0;connectable=1;" vertex="1" parent="fic08GAlzJQbdWZi42WJ-1">
          <mxGeometry y="308" width="270" height="30" as="geometry" />
        </mxCell>
        <mxCell id="fic08GAlzJQbdWZi42WJ-33" value="&lt;span class=&quot;selected&quot;&gt;+ decrementarExemplares(): boolean&lt;/span&gt;" style="text;strokeColor=none;fillColor=none;align=left;verticalAlign=middle;spacingLeft=4;spacingRight=4;overflow=hidden;points=[[0,0.5],[1,0.5]];portConstraint=eastwest;rotatable=1;whiteSpace=wrap;html=1;movable=1;resizable=1;deletable=1;editable=1;locked=0;connectable=1;" vertex="1" parent="fic08GAlzJQbdWZi42WJ-1">
          <mxGeometry y="338" width="270" height="30" as="geometry" />
        </mxCell>
        <mxCell id="fic08GAlzJQbdWZi42WJ-34" value="&lt;span class=&quot;selected&quot;&gt;+ incrementarExemplares(): void&lt;/span&gt;" style="text;strokeColor=none;fillColor=none;align=left;verticalAlign=middle;spacingLeft=4;spacingRight=4;overflow=hidden;points=[[0,0.5],[1,0.5]];portConstraint=eastwest;rotatable=1;whiteSpace=wrap;html=1;movable=1;resizable=1;deletable=1;editable=1;locked=0;connectable=1;" vertex="1" parent="fic08GAlzJQbdWZi42WJ-1">
          <mxGeometry y="368" width="270" height="30" as="geometry" />
        </mxCell>
        <mxCell id="fic08GAlzJQbdWZi42WJ-5" value="Usuario" style="swimlane;fontStyle=0;childLayout=stackLayout;horizontal=1;startSize=30;horizontalStack=0;resizeParent=1;resizeParentMax=0;resizeLast=0;collapsible=1;marginBottom=0;whiteSpace=wrap;html=1;" vertex="1" parent="1">
          <mxGeometry x="1010" y="440" width="166" height="218" as="geometry" />
        </mxCell>
        <mxCell id="fic08GAlzJQbdWZi42WJ-6" value="&lt;span class=&quot;selected&quot;&gt;- nome: String&lt;/span&gt;" style="text;strokeColor=none;fillColor=none;align=left;verticalAlign=middle;spacingLeft=4;spacingRight=4;overflow=hidden;points=[[0,0.5],[1,0.5]];portConstraint=eastwest;rotatable=0;whiteSpace=wrap;html=1;" vertex="1" parent="fic08GAlzJQbdWZi42WJ-5">
          <mxGeometry y="30" width="166" height="30" as="geometry" />
        </mxCell>
        <mxCell id="fic08GAlzJQbdWZi42WJ-7" value="&lt;span class=&quot;selected&quot;&gt;- cpf: String {PK}&lt;/span&gt;" style="text;strokeColor=none;fillColor=none;align=left;verticalAlign=middle;spacingLeft=4;spacingRight=4;overflow=hidden;points=[[0,0.5],[1,0.5]];portConstraint=eastwest;rotatable=0;whiteSpace=wrap;html=1;" vertex="1" parent="fic08GAlzJQbdWZi42WJ-5">
          <mxGeometry y="60" width="166" height="30" as="geometry" />
        </mxCell>
        <mxCell id="fic08GAlzJQbdWZi42WJ-8" value="&lt;span class=&quot;selected&quot;&gt;- email: String&lt;/span&gt;" style="text;strokeColor=none;fillColor=none;align=left;verticalAlign=middle;spacingLeft=4;spacingRight=4;overflow=hidden;points=[[0,0.5],[1,0.5]];portConstraint=eastwest;rotatable=0;whiteSpace=wrap;html=1;" vertex="1" parent="fic08GAlzJQbdWZi42WJ-5">
          <mxGeometry y="90" width="166" height="30" as="geometry" />
        </mxCell>
        <mxCell id="fic08GAlzJQbdWZi42WJ-41" value="" style="line;strokeWidth=1;fillColor=none;align=left;verticalAlign=middle;spacingTop=-1;spacingLeft=3;spacingRight=3;rotatable=0;labelPosition=right;points=[];portConstraint=eastwest;strokeColor=inherit;" vertex="1" parent="fic08GAlzJQbdWZi42WJ-5">
          <mxGeometry y="120" width="166" height="8" as="geometry" />
        </mxCell>
        <mxCell id="fic08GAlzJQbdWZi42WJ-38" value="&lt;span class=&quot;selected&quot;&gt;+ Usuario(nome, cpf, email)&lt;/span&gt;" style="text;strokeColor=none;fillColor=none;align=left;verticalAlign=middle;spacingLeft=4;spacingRight=4;overflow=hidden;points=[[0,0.5],[1,0.5]];portConstraint=eastwest;rotatable=0;whiteSpace=wrap;html=1;" vertex="1" parent="fic08GAlzJQbdWZi42WJ-5">
          <mxGeometry y="128" width="166" height="30" as="geometry" />
        </mxCell>
        <mxCell id="fic08GAlzJQbdWZi42WJ-39" value="&lt;span class=&quot;selected&quot;&gt;+ getCpf(): String&lt;/span&gt;" style="text;strokeColor=none;fillColor=none;align=left;verticalAlign=middle;spacingLeft=4;spacingRight=4;overflow=hidden;points=[[0,0.5],[1,0.5]];portConstraint=eastwest;rotatable=0;whiteSpace=wrap;html=1;" vertex="1" parent="fic08GAlzJQbdWZi42WJ-5">
          <mxGeometry y="158" width="166" height="30" as="geometry" />
        </mxCell>
        <mxCell id="fic08GAlzJQbdWZi42WJ-40" value="&lt;span class=&quot;selected&quot;&gt;+ getNome(): String&lt;/span&gt;" style="text;strokeColor=none;fillColor=none;align=left;verticalAlign=middle;spacingLeft=4;spacingRight=4;overflow=hidden;points=[[0,0.5],[1,0.5]];portConstraint=eastwest;rotatable=0;whiteSpace=wrap;html=1;" vertex="1" parent="fic08GAlzJQbdWZi42WJ-5">
          <mxGeometry y="188" width="166" height="30" as="geometry" />
        </mxCell>
        <mxCell id="fic08GAlzJQbdWZi42WJ-9" value="Emprestimo" style="swimlane;fontStyle=0;childLayout=stackLayout;horizontal=1;startSize=30;horizontalStack=0;resizeParent=1;resizeParentMax=0;resizeLast=0;collapsible=1;marginBottom=0;whiteSpace=wrap;html=1;" vertex="1" parent="1">
          <mxGeometry x="600" y="50" width="440" height="338" as="geometry" />
        </mxCell>
        <mxCell id="fic08GAlzJQbdWZi42WJ-10" value="&lt;span class=&quot;selected&quot;&gt;- dataEmprestimo: Date&lt;/span&gt;" style="text;strokeColor=none;fillColor=none;align=left;verticalAlign=middle;spacingLeft=4;spacingRight=4;overflow=hidden;points=[[0,0.5],[1,0.5]];portConstraint=eastwest;rotatable=0;whiteSpace=wrap;html=1;" vertex="1" parent="fic08GAlzJQbdWZi42WJ-9">
          <mxGeometry y="30" width="440" height="30" as="geometry" />
        </mxCell>
        <mxCell id="fic08GAlzJQbdWZi42WJ-11" value="&lt;span class=&quot;selected&quot;&gt;- dataDevolucaoPrevista: Date&lt;/span&gt;" style="text;strokeColor=none;fillColor=none;align=left;verticalAlign=middle;spacingLeft=4;spacingRight=4;overflow=hidden;points=[[0,0.5],[1,0.5]];portConstraint=eastwest;rotatable=0;whiteSpace=wrap;html=1;" vertex="1" parent="fic08GAlzJQbdWZi42WJ-9">
          <mxGeometry y="60" width="440" height="30" as="geometry" />
        </mxCell>
        <mxCell id="fic08GAlzJQbdWZi42WJ-12" value="&lt;span class=&quot;selected&quot;&gt;- dataDevolucaoReal: Date {nullable}&lt;/span&gt;" style="text;strokeColor=none;fillColor=none;align=left;verticalAlign=middle;spacingLeft=4;spacingRight=4;overflow=hidden;points=[[0,0.5],[1,0.5]];portConstraint=eastwest;rotatable=0;whiteSpace=wrap;html=1;" vertex="1" parent="fic08GAlzJQbdWZi42WJ-9">
          <mxGeometry y="90" width="440" height="30" as="geometry" />
        </mxCell>
        <mxCell id="fic08GAlzJQbdWZi42WJ-42" value="&lt;span class=&quot;selected&quot;&gt;- status: StatusEmprestimo&lt;/span&gt;" style="text;strokeColor=none;fillColor=none;align=left;verticalAlign=middle;spacingLeft=4;spacingRight=4;overflow=hidden;points=[[0,0.5],[1,0.5]];portConstraint=eastwest;rotatable=0;whiteSpace=wrap;html=1;" vertex="1" parent="fic08GAlzJQbdWZi42WJ-9">
          <mxGeometry y="120" width="440" height="30" as="geometry" />
        </mxCell>
        <mxCell id="fic08GAlzJQbdWZi42WJ-49" value="" style="line;strokeWidth=1;fillColor=none;align=left;verticalAlign=middle;spacingTop=-1;spacingLeft=3;spacingRight=3;rotatable=0;labelPosition=right;points=[];portConstraint=eastwest;strokeColor=inherit;" vertex="1" parent="fic08GAlzJQbdWZi42WJ-9">
          <mxGeometry y="150" width="440" height="8" as="geometry" />
        </mxCell>
        <mxCell id="fic08GAlzJQbdWZi42WJ-43" value="&lt;span class=&quot;selected&quot;&gt;+ Emprestimo(livro: Livro, usuario: Usuario, dataEmp: Date, dataDevPrev: Date)&lt;/span&gt;" style="text;strokeColor=none;fillColor=none;align=left;verticalAlign=middle;spacingLeft=4;spacingRight=4;overflow=hidden;points=[[0,0.5],[1,0.5]];portConstraint=eastwest;rotatable=0;whiteSpace=wrap;html=1;" vertex="1" parent="fic08GAlzJQbdWZi42WJ-9">
          <mxGeometry y="158" width="440" height="30" as="geometry" />
        </mxCell>
        <mxCell id="fic08GAlzJQbdWZi42WJ-44" value="&lt;span class=&quot;selected&quot;&gt;+ registrarDevolucao(dataReal: Date): void&lt;/span&gt;" style="text;strokeColor=none;fillColor=none;align=left;verticalAlign=middle;spacingLeft=4;spacingRight=4;overflow=hidden;points=[[0,0.5],[1,0.5]];portConstraint=eastwest;rotatable=0;whiteSpace=wrap;html=1;" vertex="1" parent="fic08GAlzJQbdWZi42WJ-9">
          <mxGeometry y="188" width="440" height="30" as="geometry" />
        </mxCell>
        <mxCell id="fic08GAlzJQbdWZi42WJ-45" value="&lt;span class=&quot;selected&quot;&gt;+ getLivro(): Livro&lt;/span&gt;" style="text;strokeColor=none;fillColor=none;align=left;verticalAlign=middle;spacingLeft=4;spacingRight=4;overflow=hidden;points=[[0,0.5],[1,0.5]];portConstraint=eastwest;rotatable=0;whiteSpace=wrap;html=1;" vertex="1" parent="fic08GAlzJQbdWZi42WJ-9">
          <mxGeometry y="218" width="440" height="30" as="geometry" />
        </mxCell>
        <mxCell id="fic08GAlzJQbdWZi42WJ-46" value="&lt;span class=&quot;selected&quot;&gt;+ getUsuario(): Usuario&lt;/span&gt;" style="text;strokeColor=none;fillColor=none;align=left;verticalAlign=middle;spacingLeft=4;spacingRight=4;overflow=hidden;points=[[0,0.5],[1,0.5]];portConstraint=eastwest;rotatable=0;whiteSpace=wrap;html=1;" vertex="1" parent="fic08GAlzJQbdWZi42WJ-9">
          <mxGeometry y="248" width="440" height="30" as="geometry" />
        </mxCell>
        <mxCell id="fic08GAlzJQbdWZi42WJ-47" value="&lt;span class=&quot;selected&quot;&gt;+ getDataEmprestimo(): Date&lt;/span&gt;" style="text;strokeColor=none;fillColor=none;align=left;verticalAlign=middle;spacingLeft=4;spacingRight=4;overflow=hidden;points=[[0,0.5],[1,0.5]];portConstraint=eastwest;rotatable=0;whiteSpace=wrap;html=1;" vertex="1" parent="fic08GAlzJQbdWZi42WJ-9">
          <mxGeometry y="278" width="440" height="30" as="geometry" />
        </mxCell>
        <mxCell id="fic08GAlzJQbdWZi42WJ-48" value="&lt;span class=&quot;selected&quot;&gt;+ getStatus(): StatusEmprestimo&lt;/span&gt;" style="text;strokeColor=none;fillColor=none;align=left;verticalAlign=middle;spacingLeft=4;spacingRight=4;overflow=hidden;points=[[0,0.5],[1,0.5]];portConstraint=eastwest;rotatable=0;whiteSpace=wrap;html=1;" vertex="1" parent="fic08GAlzJQbdWZi42WJ-9">
          <mxGeometry y="308" width="440" height="30" as="geometry" />
        </mxCell>
        <mxCell id="fic08GAlzJQbdWZi42WJ-13" value="SistemaBiblioteca" style="swimlane;fontStyle=0;childLayout=stackLayout;horizontal=1;startSize=30;horizontalStack=0;resizeParent=1;resizeParentMax=0;resizeLast=0;collapsible=1;marginBottom=0;whiteSpace=wrap;html=1;" vertex="1" parent="1">
          <mxGeometry x="530" y="448" width="370" height="548" as="geometry" />
        </mxCell>
        <mxCell id="fic08GAlzJQbdWZi42WJ-14" value="&lt;span class=&quot;selected&quot;&gt;- livros: Map&amp;lt;String, Livro&amp;gt;&lt;/span&gt;" style="text;strokeColor=none;fillColor=none;align=left;verticalAlign=middle;spacingLeft=4;spacingRight=4;overflow=hidden;points=[[0,0.5],[1,0.5]];portConstraint=eastwest;rotatable=0;whiteSpace=wrap;html=1;" vertex="1" parent="fic08GAlzJQbdWZi42WJ-13">
          <mxGeometry y="30" width="370" height="30" as="geometry" />
        </mxCell>
        <mxCell id="fic08GAlzJQbdWZi42WJ-15" value="&lt;span class=&quot;selected&quot;&gt;- usuarios: Map&amp;lt;String, Usuario&amp;gt;&lt;/span&gt;" style="text;strokeColor=none;fillColor=none;align=left;verticalAlign=middle;spacingLeft=4;spacingRight=4;overflow=hidden;points=[[0,0.5],[1,0.5]];portConstraint=eastwest;rotatable=0;whiteSpace=wrap;html=1;" vertex="1" parent="fic08GAlzJQbdWZi42WJ-13">
          <mxGeometry y="60" width="370" height="30" as="geometry" />
        </mxCell>
        <mxCell id="fic08GAlzJQbdWZi42WJ-16" value="&lt;span class=&quot;selected&quot;&gt;- historicoEmprestimos: List&amp;lt;Emprestimo&amp;gt;&lt;/span&gt;" style="text;strokeColor=none;fillColor=none;align=left;verticalAlign=middle;spacingLeft=4;spacingRight=4;overflow=hidden;points=[[0,0.5],[1,0.5]];portConstraint=eastwest;rotatable=0;whiteSpace=wrap;html=1;" vertex="1" parent="fic08GAlzJQbdWZi42WJ-13">
          <mxGeometry y="90" width="370" height="30" as="geometry" />
        </mxCell>
        <mxCell id="fic08GAlzJQbdWZi42WJ-59" value="" style="line;strokeWidth=1;fillColor=none;align=left;verticalAlign=middle;spacingTop=-1;spacingLeft=3;spacingRight=3;rotatable=0;labelPosition=right;points=[];portConstraint=eastwest;strokeColor=inherit;" vertex="1" parent="fic08GAlzJQbdWZi42WJ-13">
          <mxGeometry y="120" width="370" height="8" as="geometry" />
        </mxCell>
        <mxCell id="fic08GAlzJQbdWZi42WJ-50" value="&lt;span class=&quot;selected&quot;&gt;+ cadastrarLivro(titulo, autor, isbn, ano, editora, qtd): void&lt;/span&gt;" style="text;strokeColor=none;fillColor=none;align=left;verticalAlign=middle;spacingLeft=4;spacingRight=4;overflow=hidden;points=[[0,0.5],[1,0.5]];portConstraint=eastwest;rotatable=0;whiteSpace=wrap;html=1;" vertex="1" parent="fic08GAlzJQbdWZi42WJ-13">
          <mxGeometry y="128" width="370" height="30" as="geometry" />
        </mxCell>
        <mxCell id="fic08GAlzJQbdWZi42WJ-51" value="&lt;span class=&quot;selected&quot;&gt;+ consultarLivroPorISBN(isbn: String): Livro&lt;/span&gt;" style="text;strokeColor=none;fillColor=none;align=left;verticalAlign=middle;spacingLeft=4;spacingRight=4;overflow=hidden;points=[[0,0.5],[1,0.5]];portConstraint=eastwest;rotatable=0;whiteSpace=wrap;html=1;" vertex="1" parent="fic08GAlzJQbdWZi42WJ-13">
          <mxGeometry y="158" width="370" height="30" as="geometry" />
        </mxCell>
        <mxCell id="fic08GAlzJQbdWZi42WJ-52" value="&lt;span class=&quot;selected&quot;&gt;+ listarTodosLivros(): List&amp;lt;Livro&amp;gt;&lt;/span&gt;" style="text;strokeColor=none;fillColor=none;align=left;verticalAlign=middle;spacingLeft=4;spacingRight=4;overflow=hidden;points=[[0,0.5],[1,0.5]];portConstraint=eastwest;rotatable=0;whiteSpace=wrap;html=1;" vertex="1" parent="fic08GAlzJQbdWZi42WJ-13">
          <mxGeometry y="188" width="370" height="30" as="geometry" />
        </mxCell>
        <mxCell id="fic08GAlzJQbdWZi42WJ-53" value="&lt;span class=&quot;selected&quot;&gt;+ removerLivro(isbn: String): boolean&lt;/span&gt;" style="text;strokeColor=none;fillColor=none;align=left;verticalAlign=middle;spacingLeft=4;spacingRight=4;overflow=hidden;points=[[0,0.5],[1,0.5]];portConstraint=eastwest;rotatable=0;whiteSpace=wrap;html=1;" vertex="1" parent="fic08GAlzJQbdWZi42WJ-13">
          <mxGeometry y="218" width="370" height="30" as="geometry" />
        </mxCell>
        <mxCell id="fic08GAlzJQbdWZi42WJ-54" value="&lt;span class=&quot;selected&quot;&gt;+ buscarLivrosPorAutor(autor: String): List&amp;lt;Livro&amp;gt;&lt;/span&gt;" style="text;strokeColor=none;fillColor=none;align=left;verticalAlign=middle;spacingLeft=4;spacingRight=4;overflow=hidden;points=[[0,0.5],[1,0.5]];portConstraint=eastwest;rotatable=0;whiteSpace=wrap;html=1;" vertex="1" parent="fic08GAlzJQbdWZi42WJ-13">
          <mxGeometry y="248" width="370" height="30" as="geometry" />
        </mxCell>
        <mxCell id="fic08GAlzJQbdWZi42WJ-55" value="&lt;span class=&quot;selected&quot;&gt;+ cadastrarUsuario(nome, cpf, email: String): void&lt;/span&gt;" style="text;strokeColor=none;fillColor=none;align=left;verticalAlign=middle;spacingLeft=4;spacingRight=4;overflow=hidden;points=[[0,0.5],[1,0.5]];portConstraint=eastwest;rotatable=0;whiteSpace=wrap;html=1;" vertex="1" parent="fic08GAlzJQbdWZi42WJ-13">
          <mxGeometry y="278" width="370" height="30" as="geometry" />
        </mxCell>
        <mxCell id="fic08GAlzJQbdWZi42WJ-56" value="&lt;span class=&quot;selected&quot;&gt;+ consultarUsuarioPorCPF(cpf: String): Usuario&lt;/span&gt;" style="text;strokeColor=none;fillColor=none;align=left;verticalAlign=middle;spacingLeft=4;spacingRight=4;overflow=hidden;points=[[0,0.5],[1,0.5]];portConstraint=eastwest;rotatable=0;whiteSpace=wrap;html=1;" vertex="1" parent="fic08GAlzJQbdWZi42WJ-13">
          <mxGeometry y="308" width="370" height="30" as="geometry" />
        </mxCell>
        <mxCell id="fic08GAlzJQbdWZi42WJ-57" value="&lt;span class=&quot;selected&quot;&gt;+ listarTodosUsuarios(): List&amp;lt;Usuario&amp;gt;&lt;/span&gt;" style="text;strokeColor=none;fillColor=none;align=left;verticalAlign=middle;spacingLeft=4;spacingRight=4;overflow=hidden;points=[[0,0.5],[1,0.5]];portConstraint=eastwest;rotatable=0;whiteSpace=wrap;html=1;" vertex="1" parent="fic08GAlzJQbdWZi42WJ-13">
          <mxGeometry y="338" width="370" height="30" as="geometry" />
        </mxCell>
        <mxCell id="fic08GAlzJQbdWZi42WJ-58" value="&lt;span class=&quot;selected&quot;&gt;+ removerUsuario(cpf: String): boolean&lt;/span&gt;" style="text;strokeColor=none;fillColor=none;align=left;verticalAlign=middle;spacingLeft=4;spacingRight=4;overflow=hidden;points=[[0,0.5],[1,0.5]];portConstraint=eastwest;rotatable=0;whiteSpace=wrap;html=1;" vertex="1" parent="fic08GAlzJQbdWZi42WJ-13">
          <mxGeometry y="368" width="370" height="30" as="geometry" />
        </mxCell>
        <mxCell id="fic08GAlzJQbdWZi42WJ-60" value="&lt;span class=&quot;selected&quot;&gt;+ realizarEmprestimo(isbnLivro: String, cpfUsuario: String, dataDevolucaoPrevista: Date): boolean&lt;/span&gt;" style="text;strokeColor=none;fillColor=none;align=left;verticalAlign=middle;spacingLeft=4;spacingRight=4;overflow=hidden;points=[[0,0.5],[1,0.5]];portConstraint=eastwest;rotatable=0;whiteSpace=wrap;html=1;" vertex="1" parent="fic08GAlzJQbdWZi42WJ-13">
          <mxGeometry y="398" width="370" height="30" as="geometry" />
        </mxCell>
        <mxCell id="fic08GAlzJQbdWZi42WJ-61" value="&lt;span class=&quot;selected&quot;&gt;+ registrarDevolucao(isbnLivro: String, cpfUsuario: String, dataDevolucaoReal: Date): boolean&lt;/span&gt;" style="text;strokeColor=none;fillColor=none;align=left;verticalAlign=middle;spacingLeft=4;spacingRight=4;overflow=hidden;points=[[0,0.5],[1,0.5]];portConstraint=eastwest;rotatable=0;whiteSpace=wrap;html=1;" vertex="1" parent="fic08GAlzJQbdWZi42WJ-13">
          <mxGeometry y="428" width="370" height="30" as="geometry" />
        </mxCell>
        <mxCell id="fic08GAlzJQbdWZi42WJ-62" value="&lt;span class=&quot;selected&quot;&gt;+ listarTodosLivrosEmprestados(): List&amp;lt;Emprestimo&amp;gt;&lt;/span&gt;" style="text;strokeColor=none;fillColor=none;align=left;verticalAlign=middle;spacingLeft=4;spacingRight=4;overflow=hidden;points=[[0,0.5],[1,0.5]];portConstraint=eastwest;rotatable=0;whiteSpace=wrap;html=1;" vertex="1" parent="fic08GAlzJQbdWZi42WJ-13">
          <mxGeometry y="458" width="370" height="30" as="geometry" />
        </mxCell>
        <mxCell id="fic08GAlzJQbdWZi42WJ-63" value="&lt;span class=&quot;selected&quot;&gt;+ verificarLivrosDisponiveis(): List&amp;lt;Livro&amp;gt;&lt;/span&gt;" style="text;strokeColor=none;fillColor=none;align=left;verticalAlign=middle;spacingLeft=4;spacingRight=4;overflow=hidden;points=[[0,0.5],[1,0.5]];portConstraint=eastwest;rotatable=0;whiteSpace=wrap;html=1;" vertex="1" parent="fic08GAlzJQbdWZi42WJ-13">
          <mxGeometry y="488" width="370" height="30" as="geometry" />
        </mxCell>
        <mxCell id="fic08GAlzJQbdWZi42WJ-64" value="&lt;span class=&quot;selected&quot;&gt;+ getHistoricoDeEmprestimos(): List&amp;lt;Emprestimo&amp;gt;&lt;/span&gt;" style="text;strokeColor=none;fillColor=none;align=left;verticalAlign=middle;spacingLeft=4;spacingRight=4;overflow=hidden;points=[[0,0.5],[1,0.5]];portConstraint=eastwest;rotatable=0;whiteSpace=wrap;html=1;" vertex="1" parent="fic08GAlzJQbdWZi42WJ-13">
          <mxGeometry y="518" width="370" height="30" as="geometry" />
        </mxCell>
        <mxCell id="fic08GAlzJQbdWZi42WJ-65" value="" style="endArrow=open;startArrow=open;html=1;rounded=0;exitX=1.007;exitY=0.041;exitDx=0;exitDy=0;exitPerimeter=0;startFill=0;endFill=0;" edge="1" parent="1" source="fic08GAlzJQbdWZi42WJ-1">
          <mxGeometry width="50" height="50" relative="1" as="geometry">
            <mxPoint x="650" y="390" as="sourcePoint" />
            <mxPoint x="600" y="66" as="targetPoint" />
          </mxGeometry>
        </mxCell>
        <mxCell id="fic08GAlzJQbdWZi42WJ-66" value="Text" style="text;html=1;align=center;verticalAlign=middle;whiteSpace=wrap;rounded=0;" vertex="1" parent="1">
          <mxGeometry x="650" y="180" width="60" height="30" as="geometry" />
        </mxCell>
      </root>
    </mxGraphModel>
  </diagram>
</mxfile>
